<svg
   width="134.97621"
   height="74.90799"
   viewBox="0 0 61.930515 34.36969"
   class="css-1j8o68f"
   version="1.1"
   id="svg17"
   xmlns="http://www.w3.org/2000/svg"
   xmlns:svg="http://www.w3.org/2000/svg">
  <defs
     id="SvgjsDefs2381" />
  <g
     id="SvgjsG2382"
     featurekey="PG4fjM-0"
     transform="matrix(2,0,0,2,1.9996053,-19.790883)"
     fill="#3b3c98">
    <g
       transform="translate(-270,-140)"
       id="g11">
      <g
         id="g9">
        <path
           d="m 279,161 c -0.736,0 -1.375,0.405 -1.722,1 -0.172,0.295 -0.278,0.635 -0.278,1 0,1.102 0.897,2 2,2 1.103,0 2,-0.898 2,-2 0,-0.365 -0.105,-0.705 -0.278,-1 -0.347,-0.595 -0.985,-1 -1.722,-1 z"
           id="path3"
           style="fill:#058840;fill-opacity:1" />
        <path
           d="m 293,161 c -0.736,0 -1.375,0.405 -1.722,1 -0.172,0.295 -0.278,0.635 -0.278,1 0,1.102 0.897,2 2,2 1.103,0 2,-0.898 2,-2 0,-0.365 -0.105,-0.705 -0.278,-1 -0.347,-0.595 -0.985,-1 -1.722,-1 z"
           id="path5"
           style="fill:#058840;fill-opacity:1" />
        <path
           d="m 299,159 v -1 l -6,-1.715 -7,-4.285 h -11 v 1 h 6 v 1 h -11 v 1 h 12 v 1 h -10 v 1 h 5 v 1 h -2 v 1 h -4 v 1 h 5 v 1 h -1 v 1 h -3 v 1 h 4 c 0,-0.352 0.072,-0.686 0.184,-1 0.414,-1.162 1.512,-2 2.816,-2 1.305,0 2.402,0.838 2.816,2 0.111,0.314 0.184,0.648 0.184,1 h 8 c 0,-0.352 0.072,-0.686 0.184,-1 0.414,-1.162 1.512,-2 2.816,-2 1.305,0 2.402,0.838 2.816,2 0.111,0.314 0.184,0.648 0.184,1 h 3 v -1 h 1 v -3 z"
           id="path7"
           style="fill:#058840;fill-opacity:1" />
      </g>
    </g>
  </g>
</svg>
