<?xml version="1.0" encoding="UTF-8" standalone="no"?>
<svg
   width="366.60095"
   height="74.90799"
   viewBox="0 0 168.20583 34.36969"
   class="css-1j8o68f"
   version="1.1"
   id="svg17"
   sodipodi:docname="logo.svg"
   inkscape:version="1.3.2 (091e20e, 2023-11-25, custom)"
   xmlns:inkscape="http://www.inkscape.org/namespaces/inkscape"
   xmlns:sodipodi="http://sodipodi.sourceforge.net/DTD/sodipodi-0.dtd"
   xmlns="http://www.w3.org/2000/svg"
   xmlns:svg="http://www.w3.org/2000/svg">
  <sodipodi:namedview
     id="namedview19"
     pagecolor="#ffffff"
     bordercolor="#000000"
     borderopacity="0.25"
     inkscape:showpageshadow="2"
     inkscape:pageopacity="0.0"
     inkscape:pagecheckerboard="0"
     inkscape:deskcolor="#d1d1d1"
     inkscape:zoom="3.0976829"
     inkscape:cx="278.27251"
     inkscape:cy="102.01173"
     inkscape:window-width="1920"
     inkscape:window-height="991"
     inkscape:window-x="-9"
     inkscape:window-y="-9"
     inkscape:window-maximized="1"
     inkscape:current-layer="svg17">
    <inkscape:page
       x="0"
       y="0"
       width="168.20583"
       height="34.36969"
       id="page4"
       margin="0 62.003643 0 0"
       bleed="0" />
  </sodipodi:namedview>
  <defs
     id="SvgjsDefs2381" />
  <g
     id="SvgjsG2382"
     featurekey="PG4fjM-0"
     transform="matrix(2,0,0,2,0,-19.790883)"
     fill="#3b3c98">
    <g
       transform="translate(-270,-140)"
       id="g11">
      <g
         id="g9">
        <path
           d="m 279,161 c -0.736,0 -1.375,0.405 -1.722,1 -0.172,0.295 -0.278,0.635 -0.278,1 0,1.102 0.897,2 2,2 1.103,0 2,-0.898 2,-2 0,-0.365 -0.105,-0.705 -0.278,-1 -0.347,-0.595 -0.985,-1 -1.722,-1 z"
           id="path3"
           style="fill:#058840;fill-opacity:1" />
        <path
           d="m 293,161 c -0.736,0 -1.375,0.405 -1.722,1 -0.172,0.295 -0.278,0.635 -0.278,1 0,1.102 0.897,2 2,2 1.103,0 2,-0.898 2,-2 0,-0.365 -0.105,-0.705 -0.278,-1 -0.347,-0.595 -0.985,-1 -1.722,-1 z"
           id="path5"
           style="fill:#058840;fill-opacity:1" />
        <path
           d="m 299,159 v -1 l -6,-1.715 -7,-4.285 h -11 v 1 h 6 v 1 h -11 v 1 h 12 v 1 h -10 v 1 h 5 v 1 h -2 v 1 h -4 v 1 h 5 v 1 h -1 v 1 h -3 v 1 h 4 c 0,-0.352 0.072,-0.686 0.184,-1 0.414,-1.162 1.512,-2 2.816,-2 1.305,0 2.402,0.838 2.816,2 0.111,0.314 0.184,0.648 0.184,1 h 8 c 0,-0.352 0.072,-0.686 0.184,-1 0.414,-1.162 1.512,-2 2.816,-2 1.305,0 2.402,0.838 2.816,2 0.111,0.314 0.184,0.648 0.184,1 h 3 v -1 h 1 v -3 z"
           id="path7"
           style="fill:#058840;fill-opacity:1" />
      </g>
    </g>
  </g>
  <g
     id="g1"
     transform="matrix(2.2761472,0,0,2.2761472,-637.7219,-343.92518)">
    <rect
       id="rect171"
       style="fill:#ffffff;fill-rule:evenodd;stroke-width:0.0175578pt"
       height="15.534495"
       width="14.949263"
       y="8.4639292"
       x="121.32756"
       transform="matrix(0.49999999,0,0,0.49999999,270,149.5)" />
    <rect
       id="rect186"
       style="fill:#00bf13;fill-rule:evenodd;stroke-width:0.00776054pt"
       width="2.9107249"
       y="153.84306"
       x="332.45844"
       height="7.7934322"
       sodipodi:fill-cmyk="(1 0 0.896552 0.25)" />
    <path
       id="path184"
       style="fill:#f21930;fill-rule:evenodd;stroke-width:0.0101845pt"
       sodipodi:fill-cmyk="(0 0.896552 0.801724 0.0517241)"
       d="m 336.68591,158.66619 c -0.51075,0.91864 -1.63727,1.24506 -2.53239,0.75203 -0.89512,-0.49304 -1.22143,-1.61965 -0.7284,-2.51478 0.49304,-0.89501 1.61955,-1.22132 2.51467,-0.72829 0.3309,0.1822 0.56657,0.42184 0.75182,0.76313 -0.0676,-0.093 -0.14309,-0.16978 -0.24219,-0.24769 -0.61056,-0.48 -1.4956,-0.37408 -1.97569,0.23648 -0.4799,0.61057 -0.37398,1.4956 0.23648,1.9756 0.61057,0.48 1.4957,0.37408 1.9757,-0.23648 z" />
    <polygon
       id="polygon185"
       style="fill:#f21930;fill-rule:evenodd;stroke-width:1pt"
       points="647.32,458.71 603.55,396.67 531.37,420.21 576.84,359.41 532.15,298.04 604.03,322.5 648.59,261.03 647.53,336.95 719.76,360.33 647.24,382.78 "
       transform="matrix(0.01018455,0,0,0.01018455,329.65584,154.15835)"
       sodipodi:fill-cmyk="(0 0.896552 0.801724 0.0517241)" />
  </g>
  <g
     id="g4"
     transform="matrix(1.1380736,0,0,1.1380736,-23.16215,-3.4094254)">
    <path
       id="path4"
       style="opacity:1;fill:#000000;fill-opacity:1;stroke-width:1.60235"
       d="m 112.10306,3.0029765 c -0.89216,0 -1.62232,0.2509199 -2.19107,0.7527604 -0.56875,0.5018405 -0.85313,1.1483582 -0.85313,1.9401504 0,0.7694883 0.28438,1.4218807 0.85313,1.9571772 0.56875,0.5241445 1.29891,0.7859177 2.19107,0.7859177 0.90331,0 1.63346,-0.2558985 2.19107,-0.768891 0.56875,-0.5129925 0.85313,-1.1712597 0.85313,-1.9742039 0,-0.7917922 -0.28438,-1.4383099 -0.85313,-1.9401504 -0.55761,-0.5018405 -1.28776,-0.7527604 -2.19107,-0.7527604 z M 86.951,4.2907345 V 28.278701 h 5.402849 v -9.183678 h 1.455337 c 0.33456,0 0.641539,0.07279 0.920339,0.217763 0.289953,0.133824 0.563474,0.33456 0.819971,0.602208 0.267648,0.256497 0.529421,0.568454 0.785918,0.93647 0.256496,0.368017 0.524145,0.786217 0.802944,1.254601 l 3.730642,6.172636 h 0.004 c 0.004,0.01049 1.94691,5.357259 16.69694,4.927892 4.36782,-0.127145 45.47211,-1.338838 45.47211,-1.338838 0,0 -29.60095,0.05703 -42.17609,0 -11.54712,-0.05237 -13.79792,-3.604289 -13.79792,-3.604289 h -0.003 l -4.52373,-7.07774 c -0.23419,-0.368016 -0.49597,-0.741011 -0.78592,-1.120179 -0.2788,-0.390321 -0.57403,-0.753358 -0.88629,-1.087919 -0.31225,-0.33456 -0.63596,-0.623914 -0.97052,-0.869259 -0.33456,-0.256496 -0.679968,-0.440504 -1.036838,-0.552024 v -0.06721 c 0.814099,-0.234192 1.550128,-0.557899 2.208098,-0.970523 0.66912,-0.412624 1.23787,-0.902715 1.70626,-1.471467 0.46839,-0.568753 0.83053,-1.204417 1.08702,-1.906994 0.25649,-0.713728 0.38444,-1.489091 0.38444,-2.325492 0,-4.3492823 -2.91067,-6.5239235 -8.732017,-6.5239235 z m 33.35804,0 V 28.278701 h 8.49813 c 3.86975,0 6.96443,-1.114902 9.28404,-3.345304 2.33077,-2.230401 3.49586,-5.213861 3.49586,-8.949784 0,-7.7952521 -4.25977,-11.6928785 -12.7799,-11.6928785 z M 92.353849,8.3386142 h 2.442887 c 2.509208,0 3.763802,1.0488863 3.763802,3.1454628 0,1.003681 -0.357162,1.84506 -1.070892,2.525333 -0.702575,0.66912 -1.63347,1.00368 -2.793278,1.00368 h -2.342519 z m 33.358941,0.3512882 h 2.64272 c 2.38653,0 4.23746,0.6582674 5.5534,1.9742036 1.32709,1.304785 1.99123,3.100557 1.99123,5.386718 0,2.419986 -0.66912,4.331957 -2.00736,5.73711 -1.32709,1.405153 -3.16219,2.107729 -5.50411,2.107729 h -2.67588 z M 109.42628,11.14892 v 17.129781 h 5.28635 V 11.14892 Z m 35.29908,0 v 3.898224 h 7.74448 l -8.5976,11.040486 v 2.191071 h 15.37244 v -3.897328 h -8.21315 l 8.14683,-10.622884 V 11.14892 Z" />
  </g>
</svg>
